# xmcd CD database file
#
# Track frame offsets:
#	150
#	22725
#	49728
#	66658
#	89263
#	101108
#	124418
#	145695
#	172970
#	196150
#	218923
#	248320
#	251285
#
# Disc length: 3561 seconds
#
# Revision: 3
# Processed by: cddbd v1.5.2PL0 Copyright (c) Steve Scherf et al.
# Submitted via: CDex 1.70beta3
#
DISCID=ad0de70d
DTITLE=LOVE PSYCHEDELICO - LOVE PSYCHEDELICO 竇｢
DYEAR=2004
DGENRE=JPop
TTITLE0=Everybody needs somebody
TTITLE1=Mind across the universe
TTITLE2=My last fight
TTITLE3=all over love
TTITLE4=Happiness
TTITLE5=I am waiting for you
TTITLE6=fleeing star
TTITLE7=陬ｸ縺ｮ邇区ｧ・TTITLE8=Silver dust lane
TTITLE8=
TTITLE9=Hello
TTITLE10=neverland
TTITLE11=竇｢
TTITLE12=GRAPEFRUITS
EXTD=YEAR: 2004
EXTT0=
EXTT1=
EXTT2=
EXTT3=
EXTT4=
EXTT5=
EXTT6=
EXTT7=
EXTT8=
EXTT9=
EXTT10=
EXTT11=
EXTT12=
PLAYORDER=
